#!OML:ASF H:\Male1\Project 1\Capture day 1\Session 1\Male1.ASF
:FULLY-SPECIFIED
:DEGREES
405
root 5.38369 15.1699 -8.71443 -578.854 -65.0817 -140.174
lowerback 9.31701 1.74575 7.27604
upperback 6.84331 2.45353 -2.57388
thorax 2.41721 1.40592 -6.97665
lowerneck 1.7583 8.44218 10.633
upperneck 3.51763 11.5575 -8.58016
head 1.87791 5.80406 -4.03043
rclavicle 3.65764e-014 1.27222e-014
rhumerus -9.0046 -30.7022 -9.3263
rradius 45.7581
rwrist -40.522
rhand -42.1978 -2.49205
rfingers 7.12502
rthumb -15.0857 -31.9223
lclavicle 3.65764e-014 1.27222e-014
lhumerus -37.48 28.5219 54.4057
lradius 24.8995
lwrist 11.7634
lhand -19.277 20.3199
lfingers 7.12502
lthumb 7.03778 50.1829
rfemur 8.12239 -0.237108 37.7524
rtibia 28.7814
rfoot -10.7564 -19.003
rtoes -37.1794
lfemur -27.9795 -4.84512 -17.5049
ltibia 50.1833
lfoot -20.3736 11.1389
ltoes -12.3147
406
root 4.97307 15.1984 -8.91244 -580.418 -65.4498 -138.636
lowerback 9.13872 1.77052 7.41908
upperback 6.83473 2.49122 -2.54292
thorax 2.52007 1.43658 -7.02062
lowerneck 1.6273 8.62831 10.602
upperneck 3.62675 11.8011 -8.64749
head 1.95732 5.92111 -4.02519
rclavicle -7.07673e-014 -6.36111e-014
rhumerus -8.57145 -30.4901 -9.27067
rradius 45.7593
rwrist -40.2053
rhand -41.8268 -2.30453
rfingers 7.12502
rthumb -14.7283 -31.7613
lclavicle -7.07673e-014 -6.36111e-014
lhumerus -38.1167 28.9631 54.0815
lradius 24.8858
lwrist 11.8394
lhand -19.3856 20.6635
lfingers 7.12502
lthumb 6.93294 50.53
rfemur 8.02768 -1.67767 37.0278
rtibia 31.6357
rfoot -7.6987 -15.7534
rtoes -37.2434
lfemur -26.681 -5.14271 -18.1517
ltibia 46.0915
lfoot -19.6636 10.936
ltoes -8.73326
407
root 4.5649 15.1955 -9.10402 -581.788 -65.9599 -137.533
lowerback 9.13128 1.76575 7.32442
upperback 6.86699 2.47808 -2.54749
thorax 2.55015 1.429 -6.9697
lowerneck 1.53389 8.83779 10.6218
upperneck 3.71035 12.081 -8.76343
head 2.03277 6.057 -4.04193
rclavicle -1.59028e-014 6.36111e-015
rhumerus -8.08039 -30.2353 -9.02367
rradius 45.7982
rwrist -39.9155
rhand -41.3064 -2.35393
rfingers 7.12502
rthumb -14.2269 -31.8467
lclavicle -1.59028e-014 6.36111e-015
lhumerus -38.8933 29.5079 53.5821
lradius 24.8336
lwrist 11.914
lhand -19.5725 20.948
lfingers 7.12502
lthumb 6.75248 50.8204
rfemur 7.39215 -2.86519 35.9234
rtibia 35.7158
rfoot -5.09822 -12.4136
rtoes -37.3462
lfemur -24.9011 -5.52979 -19.0443
ltibia 42.9423
lfoot -19.0124 10.9934
ltoes -2.34753
408
root 4.15934 15.1656 -9.28905 -582.873 -66.682 -136.881
lowerback 9.2383 1.72753 6.94639
upperback 6.91311 2.40571 -2.61442
thorax 2.50708 1.37812 -6.82415
lowerneck 1.54969 9.05354 10.7348
upperneck 3.70576 12.3787 -8.93634
head 2.07588 6.20488 -4.09535
rclavicle -2.3059e-014 9.85972e-014
rhumerus -7.59919 -29.9665 -8.6149
rradius 45.9213
rwrist -39.7002
rhand -40.7612 -2.5841
rfingers 7.12502
rthumb -13.7015 -32.1131
lclavicle -2.3059e-014 9.85972e-014
lhumerus -39.7761 30.0793 52.9118
lradius 24.7275
lwrist 11.9443
lhand -19.7845 21.2206
lfingers 7.12502
lthumb 6.54783 51.0994
rfemur 6.30192 -3.78184 34.4726
rtibia 40.6398
rfoot -3.35915 -9.78719
rtoes -37.0263
lfemur -22.8022 -5.99725 -20.1928
ltibia 40.8305
lfoot -18.7964 11.133
ltoes 6.33733
409
root 3.75772 15.1095 -9.46781 -583.672 -67.6103 -136.594
lowerback 9.42993 1.65821 6.34031
upperback 6.94154 2.27993 -2.76637
thorax 2.38161 1.28961 -6.63869
lowerneck 1.7284 9.25571 10.9708
upperneck 3.57111 12.67 -9.14411
head 2.06429 6.35506 -4.18863
rclavicle -4.13472e-014 -2.22639e-014
rhumerus -7.23495 -29.6867 -8.11036
rradius 46.1866
rwrist -39.5932
rhand -40.5281 -2.98382
rfingers 7.12502
rthumb -13.4768 -32.5278
lclavicle -4.13472e-014 -2.22639e-014
lhumerus -40.7013 30.5806 52.0959
lradius 24.5636
lwrist 11.8983
lhand -19.9834 21.5552
lfingers 7.12502
lthumb 6.35581 51.4398
rfemur 4.78047 -4.31393 32.8217
rtibia 46.0481
rfoot -2.72691 -8.75373
rtoes -36.9533
lfemur -20.5684 -6.42047 -21.5246
ltibia 39.6945
lfoot -19.1839 11.3269
ltoes 14.538
410
root 3.36223 15.0354 -9.64183 -583.771 -68.8651 -136.993
lowerback 9.65092 1.58499 5.34084
upperback 6.94648 2.11774 -3.07563
thorax 2.19829 1.16869 -6.39327
lowerneck 2.02373 9.42831 11.2994
upperneck 3.29871 12.9279 -9.31993
head 1.99471 6.49354 -4.29733
rclavicle -2.38542e-015 -3.18055e-015
rhumerus -7.08836 -29.4379 -7.5877
rradius 46.6236
rwrist -39.6052
rhand -40.6219 -3.30726
rfingers 7.12502
rthumb -13.5673 -32.8452
lclavicle -2.38542e-015 -3.18055e-015
lhumerus -41.5285 30.9927 51.1924
lradius 24.3265
lwrist 11.6975
lhand -20.1468 21.9672
lfingers 7.12502
lthumb 6.19807 51.8565
rfemur 2.73793 -4.3262 30.9213
rtibia 51.6075
rfoot -3.21888 -9.79368
rtoes -37.1234
lfemur -18.3989 -6.71702 -23.1523
ltibia 39.3131
lfoot -20.0953 11.3441
ltoes 20.1835
411
root 2.97508 14.9519 -9.8108 -583.192 -70.3521 -137.985
lowerback 9.90623 1.52294 4.07333
upperback 6.9282 1.94057 -3.52503
thorax 1.96909 1.03121 -6.14153
lowerneck 2.38641 9.55318 11.6713
upperneck 2.89308 13.1237 -9.42104
head 1.86732 6.60411 -4.40098
rclavicle -2.38542e-015 -3.18055e-015
rhumerus -7.21921 -29.2348 -7.09473
rradius 47.2061
rwrist -39.7172
rhand -40.9408 -3.41589
rfingers 7.12502
rthumb -13.8745 -32.9331
lclavicle -2.38542e-015 -3.18055e-015
lhumerus -42.1374 31.3382 50.2823
lradius 24.016
lwrist 11.2709
lhand -20.3049 22.4494
lfingers 7.12502
lthumb 6.04547 52.3431
rfemur 0.16516 -3.69708 28.9772
rtibia 56.9806
rfoot -4.56667 -12.6205
rtoes -36.7843
lfemur -16.4116 -6.83869 -24.9014
ltibia 39.4211
lfoot -21.333 11.0143
ltoes 23.2046
412
root 2.59605 14.8703 -9.97386 -582.143 -71.9227 -139.325
lowerback 10.1784 1.48321 2.72792
upperback 6.9167 1.77016 -4.05234
thorax 1.74747 0.895662 -5.92671
lowerneck 2.68968 9.64099 12.0049
upperneck 2.43669 13.2617 -9.41057
head 1.71902 6.68414 -4.46779
rclavicle -3.26007e-014 1.90833e-014
rhumerus -7.62693 -29.141 -6.65793
rradius 47.8631
rwrist -39.856
rhand -41.2883 -3.27197
rfingers 7.12502
rthumb -14.2094 -32.7659
lclavicle -3.26007e-014 1.90833e-014
lhumerus -42.4166 31.662 49.4999
lradius 23.6546
lwrist 10.6297
lhand -20.5171 22.9797
lfingers 7.12502
lthumb 5.84061 52.8792
rfemur -2.90881 -2.37187 27.197
rtibia 61.8061
rfoot -6.32455 -16.4063
rtoes -35.196
lfemur -14.6283 -6.78133 -26.5563
ltibia 39.7521
lfoot -22.6777 10.3809
ltoes 23.5175
413
root 2.2227 14.7996 -10.1295 -580.951 -73.4443 -140.666
lowerback 10.4294 1.46593 1.48239
upperback 6.93182 1.62205 -4.57649
thorax 1.58034 0.776013 -5.76559
lowerneck 2.8849 9.69618 12.2552
upperneck 1.98466 13.3451 -9.33447
head 1.5738 6.73264 -4.50047
rclavicle 1.59028e-014 -1.01778e-013
rhumerus -8.24711 -29.1717 -6.27156
rradius 48.5066
rwrist -40.0026
rhand -41.3519 -2.85809
rfingers 7.12502
rthumb -14.2707 -32.3477
lclavicle 1.59028e-014 -1.01778e-013
lhumerus -42.3137 31.9335 49.0198
lradius 23.2919
lwrist 9.93168
lhand -20.8348 23.5309
lfingers 7.12502
lthumb 5.53386 53.4387
rfemur -6.3757 -0.396351 25.7012
rtibia 65.7306
rfoot -8.15691 -20.0042
rtoes -32.8284
lfemur -13.0086 -6.61779 -27.9571
ltibia 40.1037
lfoot -23.8413 9.48449
ltoes 22.5587
414
root 1.85097 14.744 -10.2761 -580.104 -74.8202 -141.549
lowerback 10.6395 1.45569 0.476741
upperback 6.99129 1.49603 -5.01612
thorax 1.49612 0.676337 -5.6524
lowerneck 3.00562 9.72717 12.4226
upperneck 1.54803 13.3897 -9.29119
head 1.43776 6.75828 -4.52872
rclavicle 1.66979e-014 -6.04305e-014
rhumerus -8.92849 -29.3302 -5.9506
rradius 49.0168
rwrist -40.1223
rhand -41.1766 -2.44721
rfingers 7.12502
rthumb -14.1018 -31.9487
lclavicle 1.66979e-014 -6.04305e-014
lhumerus -41.8512 32.0889 48.9872
lradius 22.985
lwrist 9.37444
lhand -21.2614 24.049
lfingers 7.12502
lthumb 5.12196 53.9671
rfemur -10.0055 2.03551 24.5133
rtibia 68.4525
rfoot -9.73433 -22.4768
rtoes -30.595
lfemur -11.415 -6.49011 -29.0243
ltibia 40.3226
lfoot -24.7748 8.42963
ltoes 21.6533
